<svg id="Layer_1" data-name="Layer 1" xmlns="http://www.w3.org/2000/svg" viewBox="0 0 340 340"><defs><style>.cls-1{fill:#f2f2f2;}</style></defs><path class="cls-1" d="M329.56,129.56l-.35.11C312,118.86,294,109.21,274.45,104.08l.24-.87a161.66,161.66,0,0,0-28.69-45C236.2,47.44,208.1,17.37,196.65,42c-4.3,9.22-3.93,19.91-2.6,30,.11.87.23,1.73.33,2.59A87.09,87.09,0,0,0,178.31,60.5c-4.95-3.27-12.42-7.23-18.51-5.36-5,1.55-8.65,6.94-10.49,11.61-3.73,9.48-1.74,19-.69,28.81,1.06,10,2.18,20,2.48,30.08-24.62,16-42.45,39.33-37.21,69.27,1,5.87,3.17,11.47,3.89,17.39a16.78,16.78,0,0,1-.25,6.55c-1.42,5.07-7,8.84-9.92,13.08a36.72,36.72,0,0,0-6.43,15.73,26.74,26.74,0,0,0,.7,10.57c-.24,1.6.64,4.13,2.63,6.72,1.63,2.13,2.93,3.67,4.62,4.51,1.78,1.29,3.71,2.44,5.05,4.26,2,2.75,3.61,5.23,6.1,7.53a77.87,77.87,0,0,0,17.93,12.32c13,6.52,27.78,9.29,41.88,4.8,6.15-2,12.3-5.59,18.82-6s13.17,3.48,19.11,5.51q20.05,6.83,40.58,12C151.15,374.33,8.84,295.12,9.68,168.44,9.68,92.83,66.84,22.33,141.46,8.58,224.07-8.14,306.2,50.85,329.56,129.56Z"/><path class="cls-1" d="M152.19,206.79a5.68,5.68,0,0,1-.77,5.64l-2.9,3.75a5.71,5.71,0,0,1-5.28,2.16l-4.71-.64a5.7,5.7,0,0,1-4.5-3.5l-1.79-4.39a5.7,5.7,0,0,1,.77-5.65l2.91-3.75a5.68,5.68,0,0,1,5.27-2.15l4.71.64a5.71,5.71,0,0,1,4.5,3.5Z"/><path class="cls-1" d="M115.72,254.27c4.93.83,7.62,4.1,5.3,9-1.09,2.5-2.92,6.17-5.73,6.69s-4.61.31-6.16-.46a14.34,14.34,0,0,1-2.28-2,21.54,21.54,0,0,1-3.77-5.88,25,25,0,0,1-1.2-3.37,2.16,2.16,0,0,1,.35-1C105,253.31,111.54,253.38,115.72,254.27Z"/><path class="cls-1" d="M106.85,267.48a14.34,14.34,0,0,0,2.28,2c-1.69-.84-3-2.38-4.62-4.51-2-2.59-2.87-5.12-2.63-6.72a25,25,0,0,0,1.2,3.37A21.54,21.54,0,0,0,106.85,267.48Z"/></svg>