<?xml version="1.0" encoding="utf-8"?>
<!-- Generator: Adobe Illustrator 26.0.0, SVG Export Plug-In . SVG Version: 6.00 Build 0)  -->
<svg version="1.1" id="linkedin-logo" focusable="false"
	 xmlns="http://www.w3.org/2000/svg" xmlns:xlink="http://www.w3.org/1999/xlink" x="0px" y="0px" viewBox="0 0 52 52"
	 style="enable-background:new 0 0 52 52;" xml:space="preserve">
<style type="text/css">
	.st0{fill:#0A66C2;}
</style>
<path class="st0" d="M52,4v44c0,1.1-0.4,2.1-1.2,2.8C50.1,51.6,49.1,52,48,52H4c-1.1,0-2.1-0.4-2.8-1.2C0.4,50.1,0,49.1,0,48V4
	c0-1.1,0.4-2.1,1.2-2.8C1.9,0.4,2.9,0,4,0h44c1.1,0,2.1,0.4,2.8,1.2C51.6,1.9,52,2.9,52,4z M16,20H8v24h8V20z M16.5,12
	c0-0.9-0.2-1.8-0.7-2.5c-0.5-0.8-1.2-1.3-2-1.7c-0.8-0.4-1.7-0.5-2.6-0.3c-0.9,0.2-1.7,0.6-2.3,1.2C8.2,9.3,7.8,10.1,7.6,11
	c-0.2,0.9-0.1,1.8,0.2,2.6c0.3,0.8,0.9,1.5,1.7,2c0.7,0.5,1.6,0.8,2.5,0.8c0.6,0,1.2-0.1,1.7-0.3c0.5-0.2,1-0.5,1.5-0.9
	c0.4-0.4,0.8-0.9,1-1.4C16.4,13.2,16.5,12.6,16.5,12z M44,29.1c0-7.3-4.6-9.8-8.9-9.8c-1.5,0-3,0.4-4.3,1.1c-1.3,0.7-2.4,1.8-3.3,3
	V20H20v24h8V30.9c-0.1-0.6,0-1.3,0.1-1.9c0.2-0.6,0.5-1.2,0.9-1.7c0.4-0.5,0.9-0.9,1.5-1.1c0.6-0.3,1.2-0.4,1.9-0.4
	c2.2,0,3.6,1.2,3.6,5V44h8V29.1z"/>
</svg>
