<svg id="Layer_1" data-name="Layer 1" xmlns="http://www.w3.org/2000/svg" viewBox="0 0 320 320"><defs><style>.cls-1{fill:#e5e5e5;}</style></defs><path class="cls-1" d="M160,10C77.16,10,10,78.21,10,162.35,10,233.74,58.4,293.47,123.65,310a22.55,22.55,0,0,1-1.15-7.4v-26H103.65c-10.26,0-19.39-4.48-23.81-12.81-4.91-9.26-5.76-23.41-17.94-32.07-3.61-2.88-.86-6.17,3.3-5.73,7.69,2.21,14.06,7.57,20.06,15.52s8.79,9.76,19.95,9.76a141,141,0,0,0,21.14-1.54c4.1-10.57,11.19-20.31,19.85-24.9-49.95-5.22-73.79-30.46-73.79-64.73,0-14.75,6.19-29,16.7-41-3.45-11.94-7.78-36.27,1.33-45.54,22.47,0,36.06,14.8,39.32,18.8a111.67,111.67,0,0,1,73,0c3.23-4,16.83-18.83,39.35-18.83,9.15,9.28,4.76,33.72,1.28,45.63,10.45,12,16.6,26.23,16.6,41,0,34.24-23.8,59.47-73.68,64.71C200,232.05,210,252.49,210,267.89V302.6c0,1.32-.29,6.27-.44,7.4C268,289.19,310,228.82,310,162.35,310,78.21,242.84,10,160,10Z"/></svg>