<svg id="svg8" xmlns="http://www.w3.org/2000/svg" xmlns:xlink="http://www.w3.org/1999/xlink" viewBox="0 0 1000 1000"><defs><style>.cls-1{fill:url(#radial-gradient);}.cls-2{fill:url(#radial-gradient-2);}.cls-3{fill:url(#radial-gradient-3);}.cls-4{fill:url(#radial-gradient-4);}</style><radialGradient id="radial-gradient" cx="729.57" cy="200.16" r="144.62" gradientTransform="matrix(-4.08, 1.15, -0.83, -2.94, 4092.79, 218.63)" gradientUnits="userSpaceOnUse"><stop offset="0" stop-color="#ff005f"/><stop offset="1" stop-color="#fc01d8"/></radialGradient><radialGradient id="radial-gradient-2" cx="319.39" cy="-491.32" r="144.62" gradientTransform="matrix(0, -5.3, 5.62, 0, 3036.73, 2748.01)" gradientUnits="userSpaceOnUse"><stop offset="0" stop-color="#fc0"/><stop offset="0.12" stop-color="#fc0"/><stop offset="0.57" stop-color="#fe4a05"/><stop offset="0.69" stop-color="#ff0f3f"/><stop offset="1" stop-color="#fe0657" stop-opacity="0"/></radialGradient><radialGradient id="radial-gradient-3" cx="409.51" cy="156.9" r="144.62" gradientTransform="matrix(-4, 1.25, -0.56, -1.79, 1877.61, -170.54)" gradientUnits="userSpaceOnUse"><stop offset="0" stop-color="#780cff"/><stop offset="0.19" stop-color="#780cff"/><stop offset="1" stop-color="#820bff" stop-opacity="0"/></radialGradient><radialGradient id="radial-gradient-4" cx="370.69" cy="-577.89" r="144.62" gradientTransform="matrix(1.1, -1.9, 2.47, 1.43, 1542.14, 2498.05)" gradientUnits="userSpaceOnUse"><stop offset="0" stop-color="#fc0"/><stop offset="1" stop-color="#fc0" stop-opacity="0"/></radialGradient></defs><g id="layer1"><g id="g1111"><path id="path1092" class="cls-1" d="M500,19.66c-130.29,0-146.67.52-197.86,2.95S216.17,33,185.71,44.9c-31.61,12.3-58.36,28.7-85,55.34S57.6,153.66,45.31,185.3c-11.9,30.49-20,65.46-22.26,116.45C20.74,353,20.1,369.38,20.1,499.66s.64,146.68,2.95,197.92,10.49,86,22.26,116.45C57.6,845.54,74,872.44,100.73,899.09s53.5,43.17,85,55.34c30.59,11.91,65.4,20,116.47,22.29s67.57,2.94,197.86,2.94,146.67-.51,197.86-2.94,86-10.38,116.59-22.29c31.61-12.3,58.23-28.7,85-55.34S942.6,845.67,954.89,814c11.77-30.49,19.84-65.46,22.27-116.45,2.3-51.24,2.94-67.51,2.94-197.92s-.64-146.67-2.94-197.91-10.5-86-22.27-116.45c-12.29-31.51-28.67-58.41-55.42-85.06s-53.37-43-85-55.34C783.9,33,749,24.92,697.9,22.61S630.45,19.66,500,19.66Zm-43.13,86.6h43c128.11,0,143.34.51,193.89,2.82,46.85,2.18,72.19,10,89.08,16.53,22.4,8.71,38.4,19.08,55.16,35.86s27.26,32.8,36,55.22c6.53,16.91,14.47,42.27,16.51,89.16,2.31,50.6,2.82,65.84,2.82,193.94s-.51,143.35-2.82,194c-2.17,46.76-10,72.25-16.51,89.16-8.7,22.42-19.07,38.3-36,55.08s-32.76,27.16-55.16,35.87c-16.89,6.66-42.36,14.35-89.08,16.53-50.55,2.3-65.78,2.82-193.89,2.82s-143.34-.52-193.89-2.82c-46.85-2.18-72.19-10-89.08-16.53-22.4-8.71-38.39-19.09-55.16-35.87s-27.26-32.79-36-55.21c-6.53-16.91-14.47-42.27-16.51-89.16-2.31-50.6-2.82-65.84-2.82-193.95s.51-143.34,2.82-193.94c2.17-46.76,10-72.25,16.51-89.16,8.7-22.42,19.07-38.43,36-55.21s32.76-27.16,55.16-35.87C233.83,118.82,259.3,111.13,306,109c44.28-2.18,61.56-2.82,150.89-2.69Zm299.35,79.68a57.65,57.65,0,1,0,57.59,57.65,57.62,57.62,0,0,0-57.59-57.65ZM500,253.2c-136.18,0-246.5,110.42-246.5,246.46S363.86,746.13,500,746.13,746.41,635.84,746.41,499.66,636.08,253.2,500,253.2Zm0,86.59a160,160,0,1,1-160,160A160,160,0,0,1,500,339.79Z"/><path id="path1068" class="cls-2" d="M500,19.66c-130.29,0-146.67.52-197.86,2.95S216.17,33,185.71,44.9c-31.61,12.3-58.36,28.7-85,55.34S57.6,153.66,45.31,185.3c-11.9,30.49-20,65.46-22.26,116.45C20.74,353,20.1,369.38,20.1,499.66s.64,146.68,2.95,197.92,10.49,86,22.26,116.45C57.6,845.54,74,872.44,100.73,899.09s53.5,43.17,85,55.34c30.59,11.91,65.4,20,116.47,22.29s67.57,2.94,197.86,2.94,146.67-.51,197.86-2.94,86-10.38,116.59-22.29c31.61-12.3,58.23-28.7,85-55.34S942.6,845.67,954.89,814c11.77-30.49,19.84-65.46,22.27-116.45,2.3-51.24,2.94-67.51,2.94-197.92s-.64-146.67-2.94-197.91-10.5-86-22.27-116.45c-12.29-31.51-28.67-58.41-55.42-85.06s-53.37-43-85-55.34C783.9,33,749,24.92,697.9,22.61S630.45,19.66,500,19.66Zm-43.13,86.6h43c128.11,0,143.34.51,193.89,2.82,46.85,2.18,72.19,10,89.08,16.53,22.4,8.71,38.4,19.08,55.16,35.86s27.26,32.8,36,55.22c6.53,16.91,14.47,42.27,16.51,89.16,2.31,50.6,2.82,65.84,2.82,193.94s-.51,143.35-2.82,194c-2.17,46.76-10,72.25-16.51,89.16-8.7,22.42-19.07,38.3-36,55.08s-32.76,27.16-55.16,35.87c-16.89,6.66-42.36,14.35-89.08,16.53-50.55,2.3-65.78,2.82-193.89,2.82s-143.34-.52-193.89-2.82c-46.85-2.18-72.19-10-89.08-16.53-22.4-8.71-38.39-19.09-55.16-35.87s-27.26-32.79-36-55.21c-6.53-16.91-14.47-42.27-16.51-89.16-2.31-50.6-2.82-65.84-2.82-193.95s.51-143.34,2.82-193.94c2.17-46.76,10-72.25,16.51-89.16,8.7-22.42,19.07-38.43,36-55.21s32.76-27.16,55.16-35.87C233.83,118.82,259.3,111.13,306,109c44.28-2.18,61.56-2.82,150.89-2.69Zm299.35,79.68a57.65,57.65,0,1,0,57.59,57.65,57.62,57.62,0,0,0-57.59-57.65ZM500,253.2c-136.18,0-246.5,110.42-246.5,246.46S363.86,746.13,500,746.13,746.41,635.84,746.41,499.66,636.08,253.2,500,253.2Zm0,86.59a160,160,0,1,1-160,160A160,160,0,0,1,500,339.79Z"/><path id="path28" class="cls-3" d="M500,19.66c-130.29,0-146.67.52-197.86,2.95S216.17,33,185.71,44.9c-31.61,12.3-58.36,28.7-85,55.34S57.6,153.66,45.31,185.3c-11.9,30.49-20,65.46-22.26,116.45C20.74,353,20.1,369.38,20.1,499.66s.64,146.68,2.95,197.92,10.49,86,22.26,116.45C57.6,845.54,74,872.44,100.73,899.09s53.5,43.17,85,55.34c30.59,11.91,65.4,20,116.47,22.29s67.57,2.94,197.86,2.94,146.67-.51,197.86-2.94,86-10.38,116.59-22.29c31.61-12.3,58.23-28.7,85-55.34S942.6,845.67,954.89,814c11.77-30.49,19.84-65.46,22.27-116.45,2.3-51.24,2.94-67.51,2.94-197.92s-.64-146.67-2.94-197.91-10.5-86-22.27-116.45c-12.29-31.51-28.67-58.41-55.42-85.06s-53.37-43-85-55.34C783.9,33,749,24.92,697.9,22.61S630.45,19.66,500,19.66Zm-43.13,86.6h43c128.11,0,143.34.51,193.89,2.82,46.85,2.18,72.19,10,89.08,16.53,22.4,8.71,38.4,19.08,55.16,35.86s27.26,32.8,36,55.22c6.53,16.91,14.47,42.27,16.51,89.16,2.31,50.6,2.82,65.84,2.82,193.94s-.51,143.35-2.82,194c-2.17,46.76-10,72.25-16.51,89.16-8.7,22.42-19.07,38.3-36,55.08s-32.76,27.16-55.16,35.87c-16.89,6.66-42.36,14.35-89.08,16.53-50.55,2.3-65.78,2.82-193.89,2.82s-143.34-.52-193.89-2.82c-46.85-2.18-72.19-10-89.08-16.53-22.4-8.71-38.39-19.09-55.16-35.87s-27.26-32.79-36-55.21c-6.53-16.91-14.47-42.27-16.51-89.16-2.31-50.6-2.82-65.84-2.82-193.95s.51-143.34,2.82-193.94c2.17-46.76,10-72.25,16.51-89.16,8.7-22.42,19.07-38.43,36-55.21s32.76-27.16,55.16-35.87C233.83,118.82,259.3,111.13,306,109c44.28-2.18,61.56-2.82,150.89-2.69Zm299.35,79.68a57.65,57.65,0,1,0,57.59,57.65,57.62,57.62,0,0,0-57.59-57.65ZM500,253.2c-136.18,0-246.5,110.42-246.5,246.46S363.86,746.13,500,746.13,746.41,635.84,746.41,499.66,636.08,253.2,500,253.2Zm0,86.59a160,160,0,1,1-160,160A160,160,0,0,1,500,339.79Z"/><path id="path1165" class="cls-4" d="M500,19.66c-130.29,0-146.67.52-197.86,2.95S216.17,33,185.71,44.9c-31.61,12.3-58.36,28.7-85,55.34S57.6,153.66,45.31,185.3c-11.9,30.49-20,65.46-22.26,116.45C20.74,353,20.1,369.38,20.1,499.66s.64,146.68,2.95,197.92,10.49,86,22.26,116.45C57.6,845.54,74,872.44,100.73,899.09s53.5,43.17,85,55.34c30.59,11.91,65.4,20,116.47,22.29s67.57,2.94,197.86,2.94,146.67-.51,197.86-2.94,86-10.38,116.59-22.29c31.61-12.3,58.23-28.7,85-55.34S942.6,845.67,954.89,814c11.77-30.49,19.84-65.46,22.27-116.45,2.3-51.24,2.94-67.51,2.94-197.92s-.64-146.67-2.94-197.91-10.5-86-22.27-116.45c-12.29-31.51-28.67-58.41-55.42-85.06s-53.37-43-85-55.34C783.9,33,749,24.92,697.9,22.61S630.45,19.66,500,19.66Zm-43.13,86.6h43c128.11,0,143.34.51,193.89,2.82,46.85,2.18,72.19,10,89.08,16.53,22.4,8.71,38.4,19.08,55.16,35.86s27.26,32.8,36,55.22c6.53,16.91,14.47,42.27,16.51,89.16,2.31,50.6,2.82,65.84,2.82,193.94s-.51,143.35-2.82,194c-2.17,46.76-10,72.25-16.51,89.16-8.7,22.42-19.07,38.3-36,55.08s-32.76,27.16-55.16,35.87c-16.89,6.66-42.36,14.35-89.08,16.53-50.55,2.3-65.78,2.82-193.89,2.82s-143.34-.52-193.89-2.82c-46.85-2.18-72.19-10-89.08-16.53-22.4-8.71-38.39-19.09-55.16-35.87s-27.26-32.79-36-55.21c-6.53-16.91-14.47-42.27-16.51-89.16-2.31-50.6-2.82-65.84-2.82-193.95s.51-143.34,2.82-193.94c2.17-46.76,10-72.25,16.51-89.16,8.7-22.42,19.07-38.43,36-55.21s32.76-27.16,55.16-35.87C233.83,118.82,259.3,111.13,306,109c44.28-2.18,61.56-2.82,150.89-2.69Zm299.35,79.68a57.65,57.65,0,1,0,57.59,57.65,57.62,57.62,0,0,0-57.59-57.65ZM500,253.2c-136.18,0-246.5,110.42-246.5,246.46S363.86,746.13,500,746.13,746.41,635.84,746.41,499.66,636.08,253.2,500,253.2Zm0,86.59a160,160,0,1,1-160,160A160,160,0,0,1,500,339.79Z"/></g></g></svg>