<svg id="Layer_1" data-name="Layer 1" xmlns="http://www.w3.org/2000/svg" viewBox="0 0 320 320"><defs><style>.cls-1{fill:#e5e5e5;}</style></defs><path class="cls-1" d="M310,33.08V286.92A23.65,23.65,0,0,1,286.92,310H33.08a21,21,0,0,1-16.16-6.92A21,21,0,0,1,10,286.92V33.08a21,21,0,0,1,6.92-16.16A21,21,0,0,1,33.08,10H286.92a21,21,0,0,1,16.16,6.92A21,21,0,0,1,310,33.08Zm-207.69,92.3H56.15V263.85h46.16Zm2.88-46.15c0-5.19-1.15-10.38-4-14.42-2.88-4.62-6.92-7.5-11.53-9.81a22.35,22.35,0,0,0-15-1.73,26.69,26.69,0,0,0-13.27,6.92,23.63,23.63,0,0,0-7.5,13.27,26.32,26.32,0,0,0,1.15,15A23.58,23.58,0,0,0,64.81,100a25.28,25.28,0,0,0,14.42,4.62A26.86,26.86,0,0,0,89,102.88a34.22,34.22,0,0,0,8.65-5.19,26,26,0,0,0,5.77-8.07A32.57,32.57,0,0,0,105.19,79.23Zm158.66,98.65c0-42.11-26.54-56.53-51.35-56.53a52.84,52.84,0,0,0-24.81,6.34c-7.5,4-13.84,10.39-19,17.31V125.38H125.38V263.85h46.16V188.27c-.58-3.46,0-7.5.58-11a31.91,31.91,0,0,1,5.19-9.81,19,19,0,0,1,8.65-6.35,23.4,23.4,0,0,1,11-2.3c12.7,0,20.77,6.92,20.77,28.84v76.16h46.16Z"/></svg>